<svg width="32" height="32" viewBox="0 0 32 32" fill="none" xmlns="http://www.w3.org/2000/svg">
<rect width="32" height="32" rx="4" fill="white"/>
<g clip-path="url(#clip0_1_48)">
<path d="M22.6667 12.6666H18V11.3333H22.6667V12.6666ZM23.8173 19.3333C23.5227 20.1979 22.4647 21.3333 20.4167 21.3333C18.3673 21.3333 16.7073 20.1806 16.7073 17.5499C16.7073 14.9433 18.2573 13.6033 20.3513 13.6033C22.406 13.6033 23.6607 14.7913 23.9347 16.5539C23.9867 16.8913 24.0073 17.3459 23.998 17.9806H18.6467C18.7333 20.1213 20.9687 20.1886 21.7053 19.3333H23.8173ZM18.6933 16.6666H22.0033C21.9333 15.6353 21.246 15.1873 20.352 15.1873C19.3747 15.1873 18.834 15.6993 18.6933 16.6666ZM12.3107 21.3253H8V11.3473H12.6353C16.286 11.4013 16.3553 14.9766 14.4487 15.9513C16.756 16.7913 16.8333 21.3253 12.3107 21.3253ZM10 15.3333H12.3893C14.0613 15.3333 14.3267 13.3333 12.1813 13.3333H10V15.3333ZM12.2607 17.3333H10V19.3439H12.2273C14.264 19.3439 14.1393 17.3333 12.2607 17.3333Z" fill="#333333"/>
</g>
<defs>
<clipPath id="clip0_1_48">
<rect width="16" height="16" fill="white" transform="translate(8 8)"/>
</clipPath>
</defs>
</svg>
