<svg width="82" height="82" viewBox="0 0 82 82" fill="none" xmlns="http://www.w3.org/2000/svg">
<g filter="url(#filter0_d_1_32)">
<rect x="25" y="22" width="32" height="32" rx="4" fill="white"/>
<path d="M40.9942 35.913C39.8473 35.913 38.9114 36.8489 38.9114 37.9958C38.9114 39.1427 39.8473 40.0786 40.9942 40.0786C42.1411 40.0786 43.077 39.1427 43.077 37.9958C43.077 36.8489 42.1411 35.913 40.9942 35.913ZM47.2411 37.9958C47.2411 37.1333 47.2489 36.2786 47.2005 35.4177C47.152 34.4177 46.9239 33.5302 46.1927 32.7989C45.4598 32.0661 44.5739 31.8395 43.5739 31.7911C42.7114 31.7427 41.8567 31.7505 40.9958 31.7505C40.1333 31.7505 39.2786 31.7427 38.4177 31.7911C37.4177 31.8395 36.5302 32.0677 35.7989 32.7989C35.0661 33.5317 34.8395 34.4177 34.7911 35.4177C34.7427 36.2802 34.7505 37.1348 34.7505 37.9958C34.7505 38.8567 34.7427 39.713 34.7911 40.5739C34.8395 41.5739 35.0677 42.4614 35.7989 43.1927C36.5317 43.9255 37.4177 44.152 38.4177 44.2005C39.2802 44.2489 40.1348 44.2411 40.9958 44.2411C41.8583 44.2411 42.713 44.2489 43.5739 44.2005C44.5739 44.152 45.4614 43.9239 46.1927 43.1927C46.9255 42.4598 47.152 41.5739 47.2005 40.5739C47.2505 39.713 47.2411 38.8583 47.2411 37.9958ZM40.9942 41.2005C39.2208 41.2005 37.7895 39.7692 37.7895 37.9958C37.7895 36.2223 39.2208 34.7911 40.9942 34.7911C42.7677 34.7911 44.1989 36.2223 44.1989 37.9958C44.1989 39.7692 42.7677 41.2005 40.9942 41.2005ZM44.3302 35.4083C43.9161 35.4083 43.5817 35.0739 43.5817 34.6598C43.5817 34.2458 43.9161 33.9114 44.3302 33.9114C44.7442 33.9114 45.0786 34.2458 45.0786 34.6598C45.0787 34.7582 45.0594 34.8555 45.0219 34.9464C44.9843 35.0373 44.9292 35.1198 44.8597 35.1893C44.7901 35.2589 44.7076 35.314 44.6167 35.3516C44.5259 35.3891 44.4285 35.4084 44.3302 35.4083Z" fill="#333333"/>
</g>
<defs>
<filter id="filter0_d_1_32" x="0" y="0" width="82" height="82" filterUnits="userSpaceOnUse" color-interpolation-filters="sRGB">
<feFlood flood-opacity="0" result="BackgroundImageFix"/>
<feColorMatrix in="SourceAlpha" type="matrix" values="0 0 0 0 0 0 0 0 0 0 0 0 0 0 0 0 0 0 127 0" result="hardAlpha"/>
<feOffset dy="3"/>
<feGaussianBlur stdDeviation="12.5"/>
<feComposite in2="hardAlpha" operator="out"/>
<feColorMatrix type="matrix" values="0 0 0 0 0.9125 0 0 0 0 0.9125 0 0 0 0 0.9125 0 0 0 1 0"/>
<feBlend mode="normal" in2="BackgroundImageFix" result="effect1_dropShadow_1_32"/>
<feBlend mode="normal" in="SourceGraphic" in2="effect1_dropShadow_1_32" result="shape"/>
</filter>
</defs>
</svg>
