<svg width="63" height="30" viewBox="0 0 63 30" fill="none" xmlns="http://www.w3.org/2000/svg">
<ellipse cx="60.9" cy="20" rx="2.1" ry="2" fill="#1E1E1E"/>
<path d="M6.32 22.14C5.29333 22.14 4.37333 21.9733 3.56 21.64C2.74667 21.3067 2.09333 20.8133 1.6 20.16C1.12 19.5067 0.866667 18.72 0.84 17.8H4.48C4.53333 18.32 4.71333 18.72 5.02 19C5.32667 19.2667 5.72667 19.4 6.22 19.4C6.72667 19.4 7.12667 19.2867 7.42 19.06C7.71333 18.82 7.86 18.4933 7.86 18.08C7.86 17.7333 7.74 17.4467 7.5 17.22C7.27333 16.9933 6.98667 16.8067 6.64 16.66C6.30667 16.5133 5.82667 16.3467 5.2 16.16C4.29333 15.88 3.55333 15.6 2.98 15.32C2.40667 15.04 1.91333 14.6267 1.5 14.08C1.08667 13.5333 0.88 12.82 0.88 11.94C0.88 10.6333 1.35333 9.61333 2.3 8.88C3.24667 8.13333 4.48 7.76 6 7.76C7.54667 7.76 8.79333 8.13333 9.74 8.88C10.6867 9.61333 11.1933 10.64 11.26 11.96H7.56C7.53333 11.5067 7.36667 11.1533 7.06 10.9C6.75333 10.6333 6.36 10.5 5.88 10.5C5.46667 10.5 5.13333 10.6133 4.88 10.84C4.62667 11.0533 4.5 11.3667 4.5 11.78C4.5 12.2333 4.71333 12.5867 5.14 12.84C5.56667 13.0933 6.23333 13.3667 7.14 13.66C8.04667 13.9667 8.78 14.26 9.34 14.54C9.91333 14.82 10.4067 15.2267 10.82 15.76C11.2333 16.2933 11.44 16.98 11.44 17.82C11.44 18.62 11.2333 19.3467 10.82 20C10.42 20.6533 9.83333 21.1733 9.06 21.56C8.28667 21.9467 7.37333 22.14 6.32 22.14ZM21.4047 10.72C22.6847 10.72 23.7114 11.1467 24.4847 12C25.258 12.84 25.6447 14 25.6447 15.48V22H22.2447V15.94C22.2447 15.1933 22.0514 14.6133 21.6647 14.2C21.278 13.7867 20.758 13.58 20.1047 13.58C19.4514 13.58 18.9314 13.7867 18.5447 14.2C18.158 14.6133 17.9647 15.1933 17.9647 15.94V22H14.5447V7.2H17.9647V12.34C18.3114 11.8467 18.7847 11.4533 19.3847 11.16C19.9847 10.8667 20.658 10.72 21.4047 10.72ZM30.7413 9.68C30.1413 9.68 29.6479 9.50667 29.2613 9.16C28.8879 8.8 28.7013 8.36 28.7013 7.84C28.7013 7.30667 28.8879 6.86667 29.2613 6.52C29.6479 6.16 30.1413 5.98 30.7413 5.98C31.3279 5.98 31.8079 6.16 32.1813 6.52C32.5679 6.86667 32.7613 7.30667 32.7613 7.84C32.7613 8.36 32.5679 8.8 32.1813 9.16C31.8079 9.50667 31.3279 9.68 30.7413 9.68ZM32.4413 10.84V22H29.0213V10.84H32.4413Z" fill="#0099FF"/>
<path d="M41.5197 13.68H39.6797V22H36.2597V13.68H35.0197V10.84H36.2597V10.52C36.2597 9.14667 36.653 8.10667 37.4397 7.4C38.2264 6.68 39.3797 6.32 40.8997 6.32C41.153 6.32 41.3397 6.32667 41.4597 6.34V9.24C40.8064 9.2 40.3464 9.29333 40.0797 9.52C39.813 9.74667 39.6797 10.1533 39.6797 10.74V10.84H41.5197V13.68ZM49.2067 22.16C48.1134 22.16 47.1267 21.9267 46.2467 21.46C45.3801 20.9933 44.6934 20.3267 44.1867 19.46C43.6934 18.5933 43.4467 17.58 43.4467 16.42C43.4467 15.2733 43.7001 14.2667 44.2067 13.4C44.7134 12.52 45.4067 11.8467 46.2867 11.38C47.1667 10.9133 48.1534 10.68 49.2467 10.68C50.3401 10.68 51.3267 10.9133 52.2067 11.38C53.0867 11.8467 53.7801 12.52 54.2867 13.4C54.7934 14.2667 55.0467 15.2733 55.0467 16.42C55.0467 17.5667 54.7867 18.58 54.2667 19.46C53.7601 20.3267 53.0601 20.9933 52.1667 21.46C51.2867 21.9267 50.3001 22.16 49.2067 22.16ZM49.2067 19.2C49.8601 19.2 50.4134 18.96 50.8667 18.48C51.3334 18 51.5667 17.3133 51.5667 16.42C51.5667 15.5267 51.3401 14.84 50.8867 14.36C50.4467 13.88 49.9001 13.64 49.2467 13.64C48.5801 13.64 48.0267 13.88 47.5867 14.36C47.1467 14.8267 46.9267 15.5133 46.9267 16.42C46.9267 17.3133 47.1401 18 47.5667 18.48C48.0067 18.96 48.5534 19.2 49.2067 19.2Z" fill="black"/>
</svg>
