<svg width="107" height="16" viewBox="0 0 107 16" fill="none" xmlns="http://www.w3.org/2000/svg">
<path d="M98.1763 4.79548C96.3907 4.79548 94.9497 6.22673 94.9497 8.00017C94.9497 9.77361 96.3907 11.2049 98.1763 11.2049C99.9619 11.2049 101.403 9.77361 101.403 8.00017C101.403 6.22673 99.9619 4.79548 98.1763 4.79548ZM98.1763 10.083C97.0216 10.083 96.0792 9.14704 96.0792 8.00017C96.0792 6.8533 97.0216 5.91736 98.1763 5.91736C99.331 5.91736 100.273 6.8533 100.273 8.00017C100.273 9.14704 99.331 10.083 98.1763 10.083ZM101.535 3.91736C101.118 3.91736 100.782 4.25173 100.782 4.6658C100.782 5.07986 101.118 5.41423 101.535 5.41423C101.952 5.41423 102.289 5.08142 102.289 4.6658C102.289 4.56748 102.269 4.4701 102.232 4.37924C102.194 4.28838 102.138 4.20582 102.068 4.1363C101.998 4.06677 101.915 4.01165 101.824 3.97408C101.732 3.93651 101.634 3.91724 101.535 3.91736V3.91736ZM104.466 8.00017C104.466 7.13767 104.474 6.28298 104.425 5.42205C104.376 4.42205 104.147 3.53455 103.41 2.8033C102.672 2.07048 101.78 1.84392 100.774 1.79548C99.9052 1.74705 99.0447 1.75486 98.1779 1.75486C97.3095 1.75486 96.4489 1.74705 95.5821 1.79548C94.5753 1.84392 93.6817 2.07205 92.9454 2.8033C92.2076 3.53611 91.9795 4.42205 91.9307 5.42205C91.8819 6.28455 91.8898 7.13923 91.8898 8.00017C91.8898 8.86111 91.8819 9.71736 91.9307 10.5783C91.9795 11.5783 92.2092 12.4658 92.9454 13.197C93.6833 13.9299 94.5753 14.1564 95.5821 14.2049C96.4505 14.2533 97.311 14.2455 98.1779 14.2455C99.0463 14.2455 99.9068 14.2533 100.774 14.2049C101.78 14.1564 102.674 13.9283 103.41 13.197C104.148 12.4642 104.376 11.5783 104.425 10.5783C104.475 9.71736 104.466 8.86267 104.466 8.00017V8.00017ZM103.082 11.6845C102.967 11.9689 102.828 12.1814 102.606 12.4002C102.385 12.6205 102.172 12.758 101.886 12.872C101.058 13.1986 99.0935 13.1252 98.1763 13.1252C97.2591 13.1252 95.2926 13.1986 94.4651 12.8736C94.1788 12.7595 93.9649 12.622 93.7446 12.4017C93.5228 12.1814 93.3843 11.9705 93.2695 11.6861C92.9423 10.8627 93.0162 8.91111 93.0162 8.00017C93.0162 7.08923 92.9423 5.13611 93.2695 4.31423C93.3843 4.02986 93.5228 3.81736 93.7446 3.59861C93.9664 3.37986 94.1788 3.2408 94.4651 3.12673C95.2926 2.80173 97.2591 2.87517 98.1763 2.87517C99.0935 2.87517 101.06 2.80173 101.887 3.12673C102.174 3.2408 102.388 3.3783 102.608 3.59861C102.83 3.81892 102.968 4.02986 103.083 4.31423C103.41 5.13611 103.336 7.08923 103.336 8.00017C103.336 8.91111 103.41 10.8627 103.082 11.6845Z" fill="#333333"/>
<path d="M8.51389 6.4002V5.4402C8.51389 5.0242 8.61055 4.8002 9.28715 4.8002H10.1248V3.2002H8.83608C7.22513 3.2002 6.58075 4.2562 6.58075 5.4402V6.4002H5.29199V8.0002H6.58075V12.8002H8.51389V8.0002H9.93153L10.1248 6.4002H8.51389Z" fill="#333333"/>
<path d="M33.5397 6.3048C33.5397 5.78613 33.631 5.29613 33.8109 4.8388C33.9828 4.3946 34.2381 3.98692 34.5633 3.63747C34.8879 3.29261 35.2593 2.9944 35.6668 2.75147C36.085 2.50024 36.5376 2.3107 37.0106 2.1888C37.4894 2.06395 37.9823 2.00098 38.4773 2.00147C39.2418 2.00147 39.9533 2.16213 40.6131 2.48213C41.2643 2.7963 41.8186 3.27843 42.218 3.87813C42.6302 4.48813 42.8349 5.17813 42.8349 5.94747C42.8349 6.4088 42.7892 6.86013 42.6959 7.30147C42.6043 7.74256 42.4587 8.17085 42.2623 8.5768C42.0751 8.96977 41.8304 9.33305 41.5361 9.6548C41.2402 9.97144 40.882 10.2242 40.4836 10.3975C40.051 10.5857 39.5831 10.6805 39.1109 10.6755C38.7827 10.6755 38.4551 10.5988 38.1316 10.4448C37.8081 10.2915 37.5758 10.0808 37.4362 9.8108C37.3872 9.99813 37.3201 10.2688 37.2308 10.6228C37.1449 10.9761 37.0872 11.2041 37.0617 11.3075C37.0348 11.4101 36.9851 11.5815 36.9126 11.8188C36.8635 11.9944 36.8004 12.1658 36.724 12.3315L36.4931 12.7808C36.3933 12.9736 36.2816 13.1602 36.1588 13.3395C36.0374 13.5141 35.887 13.7228 35.7078 13.9628L35.6078 13.9981L35.5413 13.9261C35.4695 13.1708 35.4326 12.7188 35.4326 12.5695C35.4326 12.1275 35.4856 11.6315 35.5903 11.0808C35.693 10.5308 35.8555 9.83947 36.0736 9.00813C36.2918 8.17747 36.4166 7.6888 36.4502 7.54413C36.2965 7.2328 36.2186 6.82613 36.2186 6.32613C36.2186 5.9268 36.3441 5.5528 36.5958 5.2008C36.8482 4.85013 37.167 4.6748 37.5537 4.6748C37.8497 4.6748 38.0792 4.77213 38.2437 4.96747C38.4088 5.16213 38.4894 5.40747 38.4894 5.7068C38.4894 6.02413 38.3833 6.48347 38.1699 7.08413C37.9564 7.68547 37.8503 8.13413 37.8503 8.43213C37.8503 8.73413 37.9591 8.9868 38.1766 9.1848C38.3912 9.3829 38.675 9.49026 38.9679 9.48413C39.2337 9.48413 39.4801 9.42413 39.709 9.30347C39.9343 9.18634 40.1293 9.0191 40.2789 8.8148C40.6045 8.371 40.8367 7.86649 40.9615 7.33147C41.0259 7.05013 41.0756 6.7828 41.1065 6.53147C41.1394 6.2788 41.1535 6.04013 41.1535 5.81347C41.1535 4.98213 40.8877 4.33413 40.3594 3.87013C39.8285 3.40613 39.1371 3.17547 38.2866 3.17547C37.3194 3.17547 36.5106 3.48613 35.8628 4.10947C35.2144 4.7308 34.8882 5.5208 34.8882 6.4788C34.8882 6.69013 34.9204 6.89413 34.9815 7.09147C35.0413 7.28813 35.1064 7.4448 35.1768 7.5608C35.2466 7.6748 35.3124 7.78613 35.3722 7.8888C35.4326 7.99147 35.4641 8.0648 35.4641 8.1088C35.4641 8.24347 35.4286 8.4188 35.3567 8.63547C35.2822 8.85213 35.1943 8.96013 35.0882 8.96013C35.0782 8.96013 35.0366 8.9528 34.9641 8.93747C34.713 8.86302 34.4863 8.72386 34.3069 8.53413C34.1166 8.3375 33.9664 8.10614 33.8646 7.8528C33.7631 7.60037 33.684 7.3396 33.6283 7.07347C33.5681 6.82165 33.5384 6.56361 33.5397 6.3048V6.3048Z" fill="#333333"/>
<path d="M68.1813 1.5C64.5724 1.5 61.6368 4.41563 61.6368 8C61.6368 11.5844 64.5724 14.5 68.1813 14.5C71.7902 14.5 74.7258 11.5844 74.7258 8C74.7258 4.41563 71.7902 1.5 68.1813 1.5ZM72.5092 4.49687C73.2879 5.44219 73.7599 6.64531 73.7709 7.95625C73.5868 7.91719 71.7383 7.54531 69.8788 7.77812C69.8395 7.68281 69.8001 7.5875 69.7592 7.49219C69.6428 7.22188 69.5185 6.95156 69.388 6.6875C71.4536 5.84844 72.3912 4.65625 72.5092 4.49687ZM68.1813 2.45625C69.6019 2.45625 70.8998 2.98594 71.8862 3.85469C71.7855 3.99687 70.9438 5.12031 68.9569 5.86094C68.0413 4.18906 67.0266 2.81719 66.8709 2.61094C67.3003 2.50781 67.7393 2.45625 68.1813 2.45625V2.45625ZM65.8042 2.98438C65.9521 3.18438 66.9511 4.56094 67.8761 6.19531C65.2615 6.88437 62.9583 6.875 62.7082 6.87187C63.0716 5.14844 64.2405 3.71719 65.8042 2.98438ZM62.5918 8.00781C62.5918 7.95156 62.5933 7.89375 62.5949 7.8375C62.8388 7.84219 65.5478 7.87656 68.3402 7.04688C68.5007 7.35781 68.6533 7.67344 68.7933 7.98906C68.7194 8.00937 68.6454 8.03125 68.573 8.05469C65.6894 8.98281 64.1555 11.5062 64.0281 11.7203C63.1361 10.7359 62.5918 9.43438 62.5918 8.00781ZM68.1813 13.5594C66.8882 13.5594 65.6973 13.1219 64.7502 12.3875C64.8509 12.1828 65.982 10.0125 69.1347 8.92031L69.1709 8.90781C69.9559 10.9328 70.28 12.6312 70.3633 13.1187C69.6737 13.4115 68.9313 13.5614 68.1813 13.5594V13.5594ZM71.3041 12.6109C71.2475 12.2734 70.9501 10.6484 70.2186 8.65312C71.9711 8.375 73.5097 8.83125 73.7001 8.89062C73.4515 10.4344 72.5595 11.7687 71.3041 12.6109V12.6109Z" fill="#333333"/>
</svg>
